<?xml version="1.0" standalone="no"?>
<!DOCTYPE svg PUBLIC "-//W3C//DTD SVG 20010904//EN"
        "http://www.w3.org/TR/2001/REC-SVG-20010904/DTD/svg10.dtd">
<svg version="1.0" xmlns="http://www.w3.org/2000/svg"
     width="188.000000pt" height="70.000000pt" viewBox="0 0 188.000000 70.000000"
     preserveAspectRatio="xMidYMid meet">
    <metadata>
        Created by potrace 1.15, written by Peter Selinger 2001-2017
    </metadata>
    <g transform="translate(0.000000,70.000000) scale(0.100000,-0.100000)"
       fill="#000000" stroke="none">
        <path d="M494 686 c-41 -18 -111 -82 -130 -118 l-15 -29 -21 27 c-71 90 -227
81 -297 -17 -27 -36 -31 -50 -31 -106 0 -70 13 -104 57 -145 36 -34 73 -48
128 -48 57 0 92 14 134 53 21 20 35 27 38 20 16 -44 68 -94 127 -123 59 -29
73 -32 129 -28 227 19 335 273 187 441 -57 65 -109 87 -201 87 -41 -1 -88 -7
-105 -14z"/>
        <path d="M975 194 c-20 -20 -16 -68 6 -72 9 -2 24 4 33 13 15 15 16 14 16 -9
0 -31 20 -34 38 -5 9 14 17 18 25 11 17 -13 67 -12 67 2 0 8 2 8 8 0 4 -6 26
-11 49 -11 31 -1 43 4 46 16 4 13 5 13 6 -3 1 -12 6 -16 16 -12 9 3 15 0 15
-9 0 -22 28 -18 40 4 15 29 13 71 -4 71 -8 0 -22 -10 -30 -22 l-16 -22 0 22
c0 17 -5 21 -22 19 -12 -2 -25 -12 -30 -23 -5 -12 -6 -8 -2 14 4 25 2 32 -10
32 -9 0 -16 -6 -16 -13 0 -10 -14 -13 -50 -11 -27 1 -53 -2 -56 -7 -3 -6 -11
-5 -20 2 -8 6 -23 9 -33 6 -12 -3 -22 1 -25 9 -7 19 -31 18 -51 -2z"/>
        <path d="M1397 184 c-30 -41 -19 -59 37 -60 41 -2 49 1 54 19 5 20 6 20 12 2
10 -27 70 -30 77 -4 7 25 23 24 23 -1 0 -23 20 -26 39 -7 10 10 11 8 5 -7 -5
-14 -3 -17 7 -14 19 6 24 38 6 38 -8 0 -14 8 -13 17 1 15 -9 18 -59 19 -33 0
-66 -4 -72 -9 -9 -6 -18 -5 -28 3 -12 10 -18 10 -30 0 -13 -10 -15 -9 -15 9 0
28 -21 26 -43 -5z"/>
        <path d="M1180 88 c0 -14 -116 -18 -137 -5 -6 4 -15 2 -18 -4 -4 -5 -13 -8
-21 -5 -23 9 -44 -5 -44 -29 0 -30 16 -41 35 -25 12 10 15 9 15 -4 0 -20 17
-21 37 -1 9 10 19 12 27 7 6 -5 50 -9 99 -8 48 1 87 -2 87 -6 0 -10 37 -10 43
0 3 4 8 22 12 40 6 27 4 32 -12 32 -11 0 -24 -5 -31 -12 -9 -9 -12 -9 -12 1 0
9 -10 12 -29 9 -21 -3 -28 -1 -24 9 3 7 -2 13 -11 13 -9 0 -16 -6 -16 -12z"/>
        <path d="M1430 86 c0 -10 -11 -12 -45 -8 l-45 5 0 -35 c0 -26 4 -35 18 -35 9
0 20 5 24 11 5 7 8 7 8 1 0 -17 70 -12 80 5 9 13 10 13 10 0 0 -14 48 -18 118
-11 6 0 12 14 12 31 0 36 -26 41 -40 8 -8 -19 -9 -18 -4 10 7 38 -13 45 -34
11 -11 -16 -16 -18 -28 -9 -7 7 -23 10 -34 7 -13 -3 -20 0 -20 9 0 8 -4 14
-10 14 -5 0 -10 -6 -10 -14z"/>
    </g>
</svg>
