<svg width="25" height="20" viewBox="0 0 25 20" fill="none" xmlns="http://www.w3.org/2000/svg"><path d="M22.185 5.552a7.43 7.43 0 00.38-2.363c0-1.088-.24-2.11-.718-3.066-1.003 0-1.889.183-2.658.549-.768.365-1.645.932-2.63 1.701-1.237-.3-2.55-.45-3.937-.45-1.52 0-2.968.164-4.346.493-1.003-.788-1.89-1.367-2.658-1.737-.769-.37-1.66-.556-2.672-.556a6.763 6.763 0 00-.718 3.066c0 .825.127 1.622.38 2.391C1.333 7.07.695 8.927.695 11.15c0 1.95.29 3.502.872 4.655a5.85 5.85 0 001.21 1.617 6.225 6.225 0 001.701 1.14 14.9 14.9 0 001.927.724c.647.192 1.362.333 2.145.421.783.09 1.474.148 2.074.177.6.027 1.266.042 1.998.042.862 0 1.645-.022 2.348-.064a20.678 20.678 0 002.412-.309c.905-.164 1.702-.387 2.391-.668a7.615 7.615 0 001.984-1.21 5.672 5.672 0 001.483-1.87c.572-1.163.858-2.715.858-4.655 0-2.232-.638-4.098-1.913-5.598zm-1.687 10.231c-.3.615-.68 1.097-1.14 1.45-.46.35-1.031.632-1.715.843-.685.211-1.341.35-1.97.415-.628.066-1.326.098-2.095.098h-2.363c-.769 0-1.467-.032-2.096-.098a10.342 10.342 0 01-1.968-.415c-.685-.211-1.257-.492-1.716-.844-.46-.352-.84-.834-1.14-1.449-.3-.614-.45-1.333-.45-2.158 0-1.126.324-2.082.971-2.87.647-.787 1.524-1.18 2.63-1.18.403 0 1.317.098 2.742.294.666.104 1.402.155 2.208.155.807 0 1.543-.051 2.209-.155 1.444-.197 2.358-.295 2.742-.295 1.106 0 1.983.394 2.63 1.181.647.788.97 1.744.97 2.87 0 .825-.15 1.545-.45 2.158z" fill="#3D385C"/><path d="M8.914 11.402c-.286-.319-.626-.478-1.02-.478-.393 0-.733.16-1.02.478a2.771 2.771 0 00-.604 1.069 4.03 4.03 0 00-.176 1.153c0 .375.059.76.176 1.154.117.393.319.75.605 1.068.286.32.626.479 1.02.479.393 0 .733-.16 1.02-.479.285-.318.487-.675.604-1.068.117-.394.176-.779.176-1.154 0-.375-.059-.76-.176-1.153a2.772 2.772 0 00-.605-1.069zm9.002 0c-.286-.319-.626-.478-1.02-.478s-.734.16-1.02.478a2.768 2.768 0 00-.604 1.069 4.028 4.028 0 00-.176 1.153c0 .375.058.76.176 1.154.117.393.319.75.604 1.068.286.32.626.479 1.02.479s.734-.16 1.02-.479a2.77 2.77 0 00.604-1.068c.118-.394.176-.779.176-1.154a4 4 0 00-.176-1.153 2.777 2.777 0 00-.604-1.069z" fill="#3D385C"/></svg>