<svg version="1.0" xmlns="http://www.w3.org/2000/svg" width="250.667" height="93.333" viewBox="0 0 188 70"><path d="M49.4 1.4c-4.1 1.8-11.1 8.2-13 11.8l-1.5 2.9-2.1-2.7c-7.1-9-22.7-8.1-29.7 1.7C.4 18.7 0 20.1 0 25.7c0 7 1.3 10.4 5.7 14.5C9.3 43.6 13 45 18.5 45c5.7 0 9.2-1.4 13.4-5.3 2.1-2 3.5-2.7 3.8-2 1.6 4.4 6.8 9.4 12.7 12.3 5.9 2.9 7.3 3.2 12.9 2.8C84 50.9 94.8 25.5 80 8.7 74.3 2.2 69.1 0 59.9 0c-4.1.1-8.8.7-10.5 1.4zm48.1 49.2c-2 2-1.6 6.8.6 7.2.9.2 2.4-.4 3.3-1.3 1.5-1.5 1.6-1.4 1.6.9 0 3.1 2 3.4 3.8.5.9-1.4 1.7-1.8 2.5-1.1 1.7 1.3 6.7 1.2 6.7-.2 0-.8.2-.8.8 0 .4.6 2.6 1.1 4.9 1.1 3.1.1 4.3-.4 4.6-1.6.4-1.3.5-1.3.6.3.1 1.2.6 1.6 1.6 1.2.9-.3 1.5 0 1.5.9 0 2.2 2.8 1.8 4-.4 1.5-2.9 1.3-7.1-.4-7.1-.8 0-2.2 1-3 2.2l-1.6 2.2v-2.2c0-1.7-.5-2.1-2.2-1.9-1.2.2-2.5 1.2-3 2.3-.5 1.2-.6.8-.2-1.4.4-2.5.2-3.2-1-3.2-.9 0-1.6.6-1.6 1.3 0 1-1.4 1.3-5 1.1-2.7-.1-5.3.2-5.6.7-.3.6-1.1.5-2-.2-.8-.6-2.3-.9-3.3-.6-1.2.3-2.2-.1-2.5-.9-.7-1.9-3.1-1.8-5.1.2zm42.2 1c-3 4.1-1.9 5.9 3.7 6 4.1.2 4.9-.1 5.4-1.9.5-2 .6-2 1.2-.2 1 2.7 7 3 7.7.4.7-2.5 2.3-2.4 2.3.1 0 2.3 2 2.6 3.9.7 1-1 1.1-.8.5.7-.5 1.4-.3 1.7.7 1.4 1.9-.6 2.4-3.8.6-3.8-.8 0-1.4-.8-1.3-1.7.1-1.5-.9-1.8-5.9-1.9-3.3 0-6.6.4-7.2.9-.9.6-1.8.5-2.8-.3-1.2-1-1.8-1-3 0-1.3 1-1.5.9-1.5-.9 0-2.8-2.1-2.6-4.3.5z"/><path d="M118 61.2c0 1.4-11.6 1.8-13.7.5-.6-.4-1.5-.2-1.8.4-.4.5-1.3.8-2.1.5-2.3-.9-4.4.5-4.4 2.9 0 3 1.6 4.1 3.5 2.5 1.2-1 1.5-.9 1.5.4 0 2 1.7 2.1 3.7.1.9-1 1.9-1.2 2.7-.7.6.5 5 .9 9.9.8 4.8-.1 8.7.2 8.7.6 0 1 3.7 1 4.3 0 .3-.4.8-2.2 1.2-4 .6-2.7.4-3.2-1.2-3.2-1.1 0-2.4.5-3.1 1.2-.9.9-1.2.9-1.2-.1 0-.9-1-1.2-2.9-.9-2.1.3-2.8.1-2.4-.9.3-.7-.2-1.3-1.1-1.3-.9 0-1.6.6-1.6 1.2zm25 .2c0 1-1.1 1.2-4.5.8l-4.5-.5v3.5c0 2.6.4 3.5 1.8 3.5.9 0 2-.5 2.4-1.1.5-.7.8-.7.8-.1 0 1.7 7 1.2 8-.5.9-1.3 1-1.3 1 0 0 1.4 4.8 1.8 11.8 1.1.6 0 1.2-1.4 1.2-3.1 0-3.6-2.6-4.1-4-.8-.8 1.9-.9 1.8-.4-1 .7-3.8-1.3-4.5-3.4-1.1-1.1 1.6-1.6 1.8-2.8.9-.7-.7-2.3-1-3.4-.7-1.3.3-2 0-2-.9 0-.8-.4-1.4-1-1.4-.5 0-1 .6-1 1.4z"/></svg>