<svg width="22" height="21" viewBox="0 0 22 21" fill="none" xmlns="http://www.w3.org/2000/svg"><path d="M17.909 6.468a5.409 5.409 0 01-1.407 1.46c.014.12.014.241.014.361 0 3.724-2.84 8.01-8.01 8.01a8.016 8.016 0 01-4.312-1.26 5.664 5.664 0 004.165-1.165 2.83 2.83 0 01-2.625-1.955c.174.027.349.053.523.053.254 0 .442-.04.683-.107-1.286-.254-2.317-1.393-2.317-2.759V9.08c.428.2.87.334 1.34.348-.764-.51-1.22-1.366-1.22-2.344 0-.509.148-1.004.389-1.42a7.991 7.991 0 005.812 2.947 2.556 2.556 0 01-.067-.643 2.812 2.812 0 012.813-2.812c.803 0 1.54.334 2.049.883a5.6 5.6 0 001.794-.683 2.843 2.843 0 01-1.245 1.567 5.935 5.935 0 001.62-.455zm3.428-2.598A3.858 3.858 0 0017.48.013H4.623A3.858 3.858 0 00.766 3.87v12.857a3.858 3.858 0 003.857 3.857H17.48a3.858 3.858 0 003.857-3.857V3.87z" fill="#3D385C"/></svg>